<svg width="512" height="512" viewBox="0 0 512 512" fill="none" xmlns="http://www.w3.org/2000/svg">
<rect width="512" height="512" fill="#52524E"/>
<path d="M68.5767 458.722C72.2221 458.722 75.2296 457.871 77.5991 456.17C80.0294 454.408 81.2446 451.674 81.2446 447.968C81.2446 445.233 80.4244 442.955 78.7839 441.132C77.2042 439.31 74.3486 437.791 70.2171 436.576L61.7415 434.024C57.4885 432.748 54.2076 430.561 51.8988 427.462C49.6508 424.303 48.5268 420.384 48.5268 415.705C48.5268 412.607 49.2255 409.721 50.6229 407.047C52.0811 404.374 54.2683 402.217 57.1847 400.577C60.1618 398.936 63.8984 398.116 68.3944 398.116C73.3158 398.116 77.2954 399.028 80.3332 400.85C83.3711 402.612 85.4976 404.921 86.7128 407.777C87.9279 410.632 88.2317 413.7 87.6241 416.981L77.1435 418.895C78.1156 413.245 77.6903 408.901 75.8676 405.863C74.1056 402.825 71.2196 401.306 67.2096 401.306C64.111 401.306 61.62 402.217 59.7365 404.04C57.9138 405.863 57.0024 408.475 57.0024 411.878C57.0024 414.673 57.7923 417.133 59.3719 419.26C61.0124 421.386 63.6857 423.027 67.3919 424.181L75.8676 426.733C80.4851 428.07 83.9483 430.105 86.2571 432.839C88.5658 435.512 89.7202 439.249 89.7202 444.049C89.7202 447.451 88.9304 450.519 87.3507 453.253C85.8318 455.927 83.4926 458.053 80.3332 459.633C77.2346 461.152 73.3461 461.911 68.6678 461.911C65.2654 461.911 62.0453 461.425 59.0074 460.453C55.9695 459.42 53.4177 457.749 51.352 455.441C49.347 453.132 48.0711 450.003 47.5243 446.054L53.6304 443.866C53.9342 447.755 54.7848 450.793 56.1822 452.98C57.6404 455.107 59.4327 456.595 61.5592 457.446C63.7465 458.296 66.0856 458.722 68.5767 458.722ZM142.08 436.94V438.763C142.08 445.75 140.257 451.37 136.612 455.623C133.027 459.815 127.893 461.911 121.21 461.911C114.527 461.911 109.362 459.815 105.717 455.623C102.132 451.37 100.34 445.75 100.34 438.763V436.94C100.34 429.953 102.132 424.363 105.717 420.171C109.362 415.979 114.527 413.883 121.21 413.883C127.893 413.883 133.027 415.979 136.612 420.171C140.257 424.363 142.08 429.953 142.08 436.94ZM130.87 435.117C130.87 428.616 130.05 423.999 128.41 421.265C126.769 418.47 124.369 417.072 121.21 417.072C118.111 417.072 115.711 418.47 114.01 421.265C112.37 423.999 111.549 428.616 111.549 435.117V440.586C111.549 447.026 112.37 451.674 114.01 454.529C115.711 457.324 118.111 458.722 121.21 458.722C124.369 458.722 126.769 457.324 128.41 454.529C130.05 451.674 130.87 447.026 130.87 440.586V435.117ZM166.552 406.956C164.669 406.956 163.15 406.379 161.995 405.225C160.841 404.01 160.264 402.46 160.264 400.577C160.264 398.693 160.841 397.174 161.995 396.02C163.15 394.866 164.669 394.288 166.552 394.288C168.375 394.288 169.894 394.866 171.109 396.02C172.324 397.174 172.932 398.693 172.932 400.577C172.932 402.46 172.324 404.01 171.109 405.225C169.894 406.379 168.375 406.956 166.552 406.956ZM154.34 417.346V414.794H171.838V453.345C171.838 455.41 171.929 456.656 172.111 457.081C172.294 457.446 172.871 457.689 173.843 457.81L178.856 458.448V461H154.34V458.448L159.352 457.81C160.325 457.689 160.902 457.446 161.084 457.081C161.266 456.656 161.357 455.41 161.357 453.345V422.449C161.357 420.384 161.266 419.169 161.084 418.804C160.902 418.379 160.325 418.105 159.352 417.984L154.34 417.346ZM189.028 396.111V393.559H206.526V453.345C206.526 455.41 206.617 456.656 206.799 457.081C206.982 457.446 207.559 457.689 208.531 457.81L213.543 458.448V461H189.028V458.448L194.04 457.81C195.012 457.689 195.59 457.446 195.772 457.081C195.954 456.656 196.045 455.41 196.045 453.345V401.215C196.045 399.149 195.954 397.934 195.772 397.569C195.59 397.144 195.012 396.871 194.04 396.749L189.028 396.111ZM253.863 401.579V399.028H279.017C283.877 399.028 287.736 399.696 290.591 401.033C293.447 402.369 295.482 404.131 296.697 406.318C297.973 408.506 298.611 410.936 298.611 413.609V416.07C298.611 419.229 297.609 421.963 295.604 424.272C293.659 426.52 290.804 428.13 287.037 429.102C291.654 429.892 295.178 431.533 297.609 434.024C300.1 436.515 301.345 439.644 301.345 443.411V445.963C301.345 448.697 300.707 451.218 299.431 453.527C298.155 455.775 296.029 457.598 293.052 458.995C290.135 460.332 286.217 461 281.295 461H253.863V458.448L258.876 457.81C259.848 457.689 260.425 457.446 260.607 457.081C260.79 456.656 260.881 455.41 260.881 453.345V406.683C260.881 404.617 260.79 403.402 260.607 403.037C260.425 402.612 259.848 402.339 258.876 402.217L253.863 401.579ZM279.017 402.217H271.817V427.735H279.017C281.629 427.735 283.604 426.854 284.941 425.092C286.277 423.27 286.946 420.414 286.946 416.526V413.609C286.946 409.66 286.277 406.774 284.941 404.951C283.604 403.129 281.629 402.217 279.017 402.217ZM281.295 430.925H271.817V457.81H281.295C284.029 457.81 286.095 456.899 287.492 455.076C288.951 453.193 289.68 450.155 289.68 445.963V442.955C289.68 434.935 286.885 430.925 281.295 430.925ZM360.785 436.94V438.763C360.785 445.75 358.962 451.37 355.317 455.623C351.732 459.815 346.598 461.911 339.915 461.911C333.232 461.911 328.067 459.815 324.422 455.623C320.837 451.37 319.045 445.75 319.045 438.763V436.94C319.045 429.953 320.837 424.363 324.422 420.171C328.067 415.979 333.232 413.883 339.915 413.883C346.598 413.883 351.732 415.979 355.317 420.171C358.962 424.363 360.785 429.953 360.785 436.94ZM349.575 435.117C349.575 428.616 348.755 423.999 347.115 421.265C345.474 418.47 343.074 417.072 339.915 417.072C336.816 417.072 334.416 418.47 332.715 421.265C331.075 423.999 330.254 428.616 330.254 435.117V440.586C330.254 447.026 331.075 451.674 332.715 454.529C334.416 457.324 336.816 458.722 339.915 458.722C343.074 458.722 345.474 457.324 347.115 454.529C348.755 451.674 349.575 447.026 349.575 440.586V435.117ZM397.182 465.557C395.784 469.385 394.235 472.453 392.534 474.762C390.893 477.07 388.858 478.741 386.428 479.774C383.997 480.807 380.96 481.323 377.314 481.323V471.298C381.02 471.298 383.997 471.025 386.245 470.478C388.554 469.992 390.316 469.172 391.531 468.017C392.807 466.924 393.749 465.496 394.357 463.734L395.268 461H390.529L377.588 422.449C377.162 421.052 376.798 420.08 376.494 419.533C376.251 418.926 375.947 418.531 375.583 418.348C375.279 418.166 374.793 418.045 374.124 417.984L369.112 417.346V414.794H393.719V417.346L388.706 417.984C387.977 418.045 387.521 418.288 387.339 418.713C387.218 419.077 387.491 420.323 388.159 422.449L398.093 452.524L408.392 422.085C409.06 420.141 409.333 419.017 409.212 418.713C409.151 418.348 408.665 418.105 407.754 417.984L402.741 417.346V414.794H420.148V417.346L415.136 417.984C414.224 418.105 413.617 418.348 413.313 418.713C413.009 419.077 412.523 420.201 411.855 422.085L397.182 465.557ZM447.573 443.775L441.284 442.317C437.214 441.345 434.176 439.613 432.171 437.122C430.227 434.571 429.255 431.563 429.255 428.1C429.255 425.548 429.801 423.209 430.895 421.082C432.049 418.895 433.842 417.164 436.272 415.888C438.702 414.551 441.862 413.883 445.75 413.883C449.942 413.883 453.345 414.551 455.957 415.888C458.57 417.224 460.423 418.986 461.517 421.174C462.61 423.361 462.944 425.7 462.519 428.191L452.494 430.014C453.345 425.882 453.102 422.692 451.765 420.444C450.489 418.196 448.332 417.072 445.294 417.072C443.168 417.072 441.406 417.71 440.009 418.986C438.611 420.201 437.912 421.963 437.912 424.272C437.912 426.399 438.52 428.282 439.735 429.923C440.95 431.502 442.743 432.566 445.112 433.112L451.401 434.571C455.897 435.603 459.147 437.244 461.152 439.492C463.157 441.679 464.16 444.413 464.16 447.694C464.16 451.765 462.641 455.167 459.603 457.901C456.626 460.575 452.16 461.911 446.206 461.911C444.14 461.911 441.862 461.608 439.371 461C436.94 460.332 434.692 459.147 432.627 457.446C430.622 455.744 429.163 453.314 428.252 450.155L434.176 447.785C434.601 451.795 435.968 454.62 438.277 456.261C440.647 457.901 443.289 458.722 446.206 458.722C448.94 458.722 451.158 458.114 452.859 456.899C454.621 455.623 455.502 453.8 455.502 451.431C455.502 449.79 454.924 448.302 453.77 446.965C452.676 445.568 450.611 444.504 447.573 443.775Z" fill="#9A9B94"/>
<mask id="mask0_2_21" style="mask-type:alpha" maskUnits="userSpaceOnUse" x="92" y="14" width="335" height="335">
<path fill-rule="evenodd" clip-rule="evenodd" d="M400.633 271.394C417.225 245.408 426.84 214.537 426.84 181.42C426.84 172.311 426.113 163.373 424.713 154.659L423.768 148.141L423.598 148.466C414.789 104.338 388.634 66.4681 352.543 42.2674L352.602 42.1593L347.994 39.0874L347.899 39.2635C322.228 23.2515 291.904 14 259.42 14C248.073 14 236.989 15.1289 226.276 17.2804L226.141 17.0719L221.533 18.0959L221.646 18.2789C172.551 29.6005 131.713 62.5128 109.668 106.48L109.408 106.158L106.848 111.79L107.024 112.004C97.3758 133.151 92 156.658 92 181.42C92 273.883 166.956 348.84 259.42 348.84C317.379 348.84 368.46 319.388 398.512 274.633L400.729 271.53L400.633 271.394ZM380.249 242.347L425.03 156.845L424.713 154.659C424.379 152.582 424.007 150.517 423.598 148.466L377.177 237.227L303.963 131.245L352.543 42.2674C351.013 41.2413 349.464 40.2398 347.899 39.2635L300.891 126.637L256.348 63.6628L261.98 50.8631L277.34 15.024L272.22 14.512L253.276 59.0549L226.276 17.2804C224.725 17.5919 223.181 17.9249 221.646 18.2789L249.692 63.6628L185.694 200.364L109.668 106.48C108.754 108.302 107.873 110.144 107.024 112.004L183.134 204.459L140.127 298.665L143.711 302.249L186.206 208.555L228.701 259.754L188.254 332.968L192.862 335.016L231.773 263.85L298.331 344.232L303.451 342.696L234.845 259.754L301.403 136.877L374.105 242.347L322.394 336.552L329.562 333.48L377.177 246.442L398.169 275.114L398.512 274.633C399.231 273.562 399.938 272.482 400.633 271.394L380.249 242.347ZM380.249 242.347L377.177 237.227L374.105 242.347L377.177 246.442L380.249 242.347ZM297.819 131.245L301.403 136.877L303.963 131.245L300.891 126.637L297.819 131.245ZM253.367 68.0763L297.819 131.245L231.773 254.122L189.278 204.459L253.367 68.0763ZM253.367 68.0763L256.348 63.6628L253.276 59.0549L249.692 63.6628L253.367 68.0763ZM231.773 254.122L234.845 259.754L231.773 263.85L228.701 259.754L231.773 254.122ZM189.278 204.459L186.206 208.555L183.134 204.459L185.694 200.364L189.278 204.459Z" fill="#9A9B94"/>
</mask>
<g mask="url(#mask0_2_21)">
<path d="M426.84 180.42C426.84 272.883 351.883 347.84 259.42 347.84C166.956 347.84 92 272.883 92 180.42C92 87.9565 166.956 13 259.42 13C351.883 13 426.84 87.9565 426.84 180.42Z" fill="#9A9B94"/>
</g>
</svg>
