<svg width="512" height="512" viewBox="0 0 512 512" fill="none" xmlns="http://www.w3.org/2000/svg">
<g clip-path="url(#clip0_2_15)">
<mask id="mask0_2_15" style="mask-type:alpha" maskUnits="userSpaceOnUse" x="0" y="0" width="512" height="512">
<path fill-rule="evenodd" clip-rule="evenodd" d="M471.928 393.578C497.297 353.843 512 306.639 512 256C512 242.072 510.888 228.404 508.747 215.08L507.303 205.113L507.042 205.611C493.573 138.135 453.58 80.2284 398.393 43.2233L398.483 43.0581L391.437 38.3609L391.292 38.6301C352.038 14.1464 305.671 0 256 0C238.649 0 221.701 1.72615 205.319 5.01609L205.113 4.69725L198.067 6.263L198.24 6.54281C123.17 23.8546 60.7252 74.1804 27.0161 141.409L26.6177 140.917L22.7034 149.529L22.973 149.857C8.22007 182.193 0 218.137 0 256C0 397.385 114.615 512 256 512C344.625 512 422.731 466.965 468.683 398.532L472.073 393.786L471.928 393.578ZM440.758 349.162L509.232 218.422L508.747 215.08C508.237 211.904 507.668 208.747 507.042 205.611L436.061 341.333L324.11 179.278L398.393 43.2233C396.053 41.6544 393.686 40.123 391.292 38.6301L319.413 172.232L251.303 75.9388L259.914 56.367L283.401 1.56575L275.572 0.782875L246.605 68.893L205.319 5.01609C202.948 5.49239 200.588 6.00146 198.24 6.54281L241.125 75.9388L143.266 284.966L27.0161 141.409C25.6186 144.196 24.2706 147.013 22.973 149.857L139.352 291.229L73.5902 435.278L79.0703 440.758L144.049 297.492L209.028 375.78L147.18 487.731L154.226 490.862L213.725 382.043L315.498 504.954L323.327 502.606L218.422 375.78L320.196 187.89L431.364 349.162L352.294 493.211L363.254 488.514L436.061 355.425L468.159 399.266L468.683 398.532C469.783 396.894 470.865 395.243 471.928 393.578L440.758 349.162ZM440.758 349.162L436.061 341.333L431.364 349.162L436.061 355.425L440.758 349.162ZM314.716 179.278L320.196 187.89L324.11 179.278L319.413 172.232L314.716 179.278ZM246.744 82.6874L314.716 179.278L213.725 367.168L148.746 291.229L246.744 82.6874ZM246.744 82.6874L251.303 75.9388L246.605 68.893L241.125 75.9388L246.744 82.6874ZM213.725 367.168L218.422 375.78L213.725 382.043L209.028 375.78L213.725 367.168ZM148.746 291.229L144.049 297.492L139.352 291.229L143.266 284.966L148.746 291.229Z" fill="#9A9B94"/>
</mask>
<g mask="url(#mask0_2_15)">
<path d="M512 256C512 397.385 397.385 512 256 512C114.615 512 0 397.385 0 256C0 114.615 114.615 0 256 0C397.385 0 512 114.615 512 256Z" fill="#9A9B94"/>
</g>
</g>
<defs>
<clipPath id="clip0_2_15">
<rect width="512" height="512" fill="white"/>
</clipPath>
</defs>
</svg>
