<svg width="1920" height="1080" viewBox="0 0 1920 1080" fill="none" xmlns="http://www.w3.org/2000/svg">
    <g id="Frame 9" clip-path="url(#clip0_14_29)">
        <path id="404" d="M1298.95 628.7V600.2H1212.25V590.6C1222.45 579.8 1231.25 569.3 1238.65 559.1C1246.05 548.7 1252.45 538 1257.85 527C1263.25 516 1267.95 504.2 1271.95 491.6C1276.15 478.8 1279.95 464.6 1283.35 449H1315.15C1307.15 477.2 1295.45 502.5 1280.05 524.9C1264.65 547.3 1246.25 569.2 1224.85 590.6H1298.95V543.5L1325.05 539.3V590.6H1348.15V600.2H1325.05V628.7C1325.05 635.7 1325.35 639.8 1325.95 641C1326.55 642.2 1328.45 643 1331.65 643.4L1348.15 645.2V653H1269.85V645.2L1292.35 643.4C1295.55 643.2 1297.45 642.5 1298.05 641.3C1298.65 639.9 1298.95 635.7 1298.95 628.7ZM1518.56 541.4V560.3C1518.56 579.5 1515.86 596.3 1510.46 610.7C1505.06 625.1 1497.16 636.3 1486.76 644.3C1476.36 652.1 1463.76 656 1448.96 656C1433.96 656 1421.26 652.1 1410.86 644.3C1400.66 636.3 1392.86 625.1 1387.46 610.7C1382.06 596.3 1379.36 579.5 1379.36 560.3V541.4C1379.36 522.2 1382.06 505.5 1387.46 491.3C1392.86 476.9 1400.66 465.8 1410.86 458C1421.26 450 1433.96 446 1448.96 446C1463.76 446 1476.36 450 1486.76 458C1497.16 465.8 1505.06 476.9 1510.46 491.3C1515.86 505.5 1518.56 522.2 1518.56 541.4ZM1489.46 520.4C1489.46 497.2 1485.96 480.6 1478.96 470.6C1471.96 460.6 1461.96 455.6 1448.96 455.6C1435.96 455.6 1425.96 460.6 1418.96 470.6C1411.96 480.6 1408.46 497.2 1408.46 520.4V581.3C1408.46 604.7 1411.96 621.4 1418.96 631.4C1425.96 641.4 1435.96 646.4 1448.96 646.4C1461.96 646.4 1471.96 641.4 1478.96 631.4C1485.96 621.4 1489.46 604.7 1489.46 581.3V520.4ZM1632.64 628.7V600.2H1545.94V590.6C1556.14 579.8 1564.94 569.3 1572.34 559.1C1579.74 548.7 1586.14 538 1591.54 527C1596.94 516 1601.64 504.2 1605.64 491.6C1609.84 478.8 1613.64 464.6 1617.04 449H1648.84C1640.84 477.2 1629.14 502.5 1613.74 524.9C1598.34 547.3 1579.94 569.2 1558.54 590.6H1632.64V543.5L1658.74 539.3V590.6H1681.84V600.2H1658.74V628.7C1658.74 635.7 1659.04 639.8 1659.64 641C1660.24 642.2 1662.14 643 1665.34 643.4L1681.84 645.2V653H1603.54V645.2L1626.04 643.4C1629.24 643.2 1631.14 642.5 1631.74 641.3C1632.34 639.9 1632.64 635.7 1632.64 628.7Z" fill="#B7B7B7"/>
        <mask id="mask0_14_29" style="mask-type:alpha" maskUnits="userSpaceOnUse" x="-116" y="-124" width="2016" height="1176">
            <path id="Mask" fill-rule="evenodd" clip-rule="evenodd" d="M207.624 -100.588C212.285 -108.813 207.624 -119.78 198.028 -120.877C126.197 -131.021 52.7201 -113.2 -5.95157 -69.8817C-11.1607 -65.7692 -12.8057 -58.0925 -9.24157 -52.0608L73.2826 91.0542C78.4918 100.102 91.6517 100.102 97.1351 91.0542L207.624 -100.588ZM412.975 49.3808C386.107 -18.3383 332.918 -72.8975 266.296 -101.411C259.99 -104.153 252.588 -101.411 249.023 -95.3792L166.499 47.4617C161.29 56.235 167.87 67.75 178.563 67.75H400.089C409.685 67.75 416.539 58.1542 412.975 49.3808ZM329.903 95.1667H244.911C234.493 95.1667 227.638 106.682 233.122 115.729L349.917 318.338C354.578 326.563 366.367 327.934 372.398 320.532C394.655 292.647 410.943 260.765 420.791 227L329.903 95.1667ZM421.787 223.5C424.027 215.426 425.901 207.25 427.402 199L421.787 223.5ZM-56.3982 -20.2575C-103.829 39.785 -124.392 117.374 -112.602 193.318C-111.78 199.898 -105.748 204.833 -98.8941 204.833H71.0893C81.5076 204.833 88.3618 193.318 82.8784 184.271L-33.9166 -18.0642C-38.8516 -26.2892 -50.6407 -27.66 -56.3982 -20.2575ZM-96.9749 250.619C-70.1066 318.338 -16.9182 372.898 49.7043 401.411C56.0101 404.152 63.4126 401.411 66.9768 395.379L149.501 252.538C154.71 243.491 148.13 231.976 137.712 231.976H-84.0891C-93.6849 232.25 -100.539 241.846 -96.9749 250.619ZM117.698 421.151C189.529 431.295 263.006 413.474 321.678 370.156C327.161 366.043 328.806 358.093 325.242 352.061L242.718 208.946C237.508 199.898 224.348 199.898 218.865 208.946L108.102 400.588C103.441 408.813 108.376 419.78 117.698 421.151ZM1900 676C1900 883.659 1731.66 1052 1524 1052C1337.51 1052 1182.72 916.227 1153.11 738.135C1179.76 749.632 1209.14 756 1240 756C1361.5 756 1460 657.279 1460 535.5C1460 453.17 1414.98 381.379 1348.27 343.507C1400.72 315.731 1460.52 300 1524 300C1731.66 300 1900 468.341 1900 676ZM1348.27 343.507C1316.31 325.36 1279.36 315 1240 315C1118.5 315 1020 413.721 1020 535.5C1020 626.349 1074.82 704.366 1153.11 738.135C1149.75 717.923 1148 697.166 1148 676C1148 531.82 1229.15 406.594 1348.27 343.507Z" fill="#9A9B94"/>
        </mask>
        <g mask="url(#mask0_14_29)">
            <rect id="Rectangle 1" width="1920" height="1080" fill="#9A9B94">
                <animate
                    attributeName="fill-opacity"
                    values="0.4;1;0.4"
                    dur="2.5s"
                    repeatCount="indefinite" 
                />
            </rect>
        </g>
    </g>
    <defs>
        <clipPath id="clip0_14_29">
            <rect width="1920" height="1080" fill="white"/>
        </clipPath>
    </defs>
</svg>
