<svg width="1024" height="1024" viewBox="0 0 1024 1024" fill="none" xmlns="http://www.w3.org/2000/svg">
<rect width="1024" height="1024" fill="#AEC9D9"/>
<g clip-path="url(#clip0_2_191)" filter="url(#filter0_d_2_191)">
<path d="M564.875 421.81C579.336 418.864 593.798 415.919 609.938 414.118C611.616 415.263 611.784 417.025 611.695 417.923C611.606 418.822 611.427 420.618 610.346 421.335C605.156 427.631 601.478 433.597 596.864 438.722C576.452 461.393 566.939 493.101 536.951 509.176C488.586 528.325 441.649 547.206 394.928 566.609C391.784 567.915 390.276 573.151 386.903 576.002C385 575.231 384.202 575.019 382.928 574.737C381.415 574.791 380.619 575.287 379.133 576.564C377.534 577.087 376.867 577.203 375.275 576.698C371.206 578.235 368.062 580.392 364.238 582.876C363.558 583.203 362.091 583.56 360.615 583.265C354.692 585.492 350.246 588.013 345.159 590.949C344.519 591.364 343.124 591.982 341.586 591.59C334.483 592.193 328.558 592.289 323.413 594.337C299.729 603.767 276.172 613.531 252.769 623.638C244.805 627.077 237.974 630.522 237.434 615.694C233.621 586.85 229.729 559.635 225.837 532.421C225.495 518.248 230.338 508.718 249.433 508.84C336.127 486.346 420 464.642 503.674 442.197C524.406 436.636 544.492 428.67 564.875 421.81Z" fill="#63808F"/>
<path d="M899.894 565.449C894.788 564.725 889.682 564.001 882.121 562.396C877.398 561.26 875.131 561.003 872.863 560.747C871.521 560.603 870.178 560.459 866.469 560.005C859.573 558.456 855.044 557.217 850.515 555.979C812.762 546.314 775.01 536.648 735.102 524.525C732.019 521.13 731.091 520.195 730.164 519.259C730.164 519.259 729.502 518.744 731.244 518.164C749.86 505.249 766.735 492.913 785.075 480.773C811.613 485.407 836.684 489.846 862.968 495.113C873.935 497.815 883.69 499.689 893.446 501.563C894.991 501.583 896.537 501.603 900.353 502.571C905.243 503.457 907.862 503.394 910.482 503.332C918.953 505.198 927.425 507.064 938.358 509.813C943.159 511.101 945.498 511.507 947.838 511.913C947.838 511.913 947.983 512.013 948.204 513.325C936.445 532.1 924.464 549.563 911.236 566.622C906.625 565.962 903.259 565.706 899.894 565.449Z" fill="#B3D083"/>
<path d="M783.609 480.577C766.735 492.913 749.86 505.249 731.278 517.747C725.128 467.396 720.685 416.883 715.779 363.188C714.192 341.87 713.069 323.734 711.945 305.599C716.744 299.843 721.543 294.088 728.612 287.443C734.861 296.53 738.84 306.506 742.768 317.93C744.031 323.745 745.343 328.115 746.774 333.227C746.893 333.971 746.798 335.473 746.719 337.019C747.96 344.158 749.28 349.751 750.501 355.394C750.402 355.444 750.603 355.364 750.535 356.761C751.803 362.364 753.139 366.571 754.375 370.825C754.275 370.873 754.431 370.721 754.367 372.392C758.227 390.933 762.15 407.802 765.949 424.708C765.825 424.745 766.037 424.596 765.969 426.027C767.475 431.646 769.051 435.835 771.39 441.177C774.686 445.983 777.219 449.636 779.234 454.642C780.347 464.189 781.978 472.383 783.609 480.577Z" fill="#728E83"/>
<path d="M388.008 576.56C390.276 573.151 391.784 567.915 394.928 566.609C441.649 547.206 488.586 528.324 536.922 510.91C539.565 547.117 540.757 581.734 540.824 616.67C538.93 617.116 538.161 617.244 537.392 617.371C537.392 591.526 537.392 565.681 537.392 539.836C535.478 539.128 533.565 538.419 531.652 537.711C507.965 560.294 484.278 582.877 458.289 604.961C437.124 607.366 418.262 610.27 399.529 611.69C395.775 598.99 391.892 587.775 388.008 576.56Z" fill="#384D5C"/>
<path d="M563.698 421.684C544.492 428.67 524.406 436.636 503.674 442.197C420 464.642 336.127 486.346 250.962 508.886C243.525 471.708 238.167 479.3 278.273 471.403C338.364 459.57 398.797 449.451 459.131 438.866C493.547 432.828 528.054 427.311 563.698 421.684Z" fill="#A9CDEF"/>
<path d="M230.07 636.427C188.972 623.434 147.847 610.528 106.798 597.381C97.3992 594.371 88.2662 590.532 74.6225 585.434C96.7612 567.046 115.676 551.336 136.627 536.64C165.182 562.911 191.7 588.168 218.742 614.238C220.282 615.828 221.299 616.605 222.313 617.301C222.311 617.22 222.187 617.324 222.794 618.385C225.624 625.106 227.847 630.767 230.07 636.427Z" fill="#6F8B84"/>
<path d="M399.399 613.174C418.262 610.27 437.124 607.366 457.074 605.375C433.859 630.721 408.608 652.641 370.19 648.249C362.278 647.345 353.87 650.769 343.15 651.524C333.506 652.428 326.402 654.004 319.298 655.58C281.81 658.468 244.322 661.356 205.083 662.586C203.163 658.838 202.994 656.749 202.824 654.659C210.863 651.172 218.901 647.684 229.989 644.303C244.854 640.667 256.669 636.925 269.835 633.657C273.53 634.706 276.028 636.126 278.194 635.73C318.619 628.34 359.005 620.735 399.399 613.174Z" fill="#6C8680"/>
<path d="M541.949 616.352C540.757 581.734 539.565 547.117 538.401 510.766C566.939 493.101 576.452 461.393 596.864 438.722C601.478 433.597 605.156 427.631 610.353 422.897C606.379 447.156 601.318 470.569 596.246 495.007C596.261 496.713 596.286 497.395 596.294 497.971C596.277 497.864 596.462 497.976 595.415 498.112C593.606 500.659 592.843 503.069 592.08 505.479C591.793 508.366 591.507 511.254 589.948 515.834C588.393 519.891 588.111 522.256 587.828 524.622C581.794 552.519 575.76 580.417 567.734 610.145C557.811 613.434 549.88 614.893 541.949 616.352Z" fill="#475C6D"/>
<path d="M710.84 306.231C713.069 323.734 714.192 341.87 715.494 361.599C701.772 382.769 687.841 402.324 673.989 421.934C669.218 428.688 664.644 435.581 657.61 443.198C648.562 439.682 641.943 435.281 635.189 431.098C627.45 426.306 619.591 421.707 611.784 417.025C611.784 417.025 611.616 415.263 611.604 414.378C644.307 377.95 677.021 342.407 710.84 306.231Z" fill="#4F676F"/>
<path d="M912.483 567.026C924.464 549.563 936.445 532.1 948.273 513.38C951.321 521.746 956.281 531.164 957.428 541.025C963.539 593.527 968.622 646.148 974.285 698.703C974.912 704.515 976.97 710.174 978.363 715.904C976.146 716.737 973.928 717.571 971.71 718.405C952.58 669.755 933.45 621.105 913.449 570.545C912.579 568.635 912.483 567.026 912.483 567.026Z" fill="#6E877D"/>
<path d="M218.219 613.424C191.7 588.168 165.182 562.911 138 536.488C165.649 534.313 193.961 533.304 224.056 532.358C229.729 559.635 233.621 586.85 235.928 615.674C230.291 617.297 226.239 617.31 222.187 617.324C222.187 617.324 222.311 617.22 221.785 616.493C220.245 614.986 219.232 614.205 218.219 613.424Z" fill="#475C6D"/>
<path d="M632.847 471.788C645.13 507.727 657.414 543.665 668.33 581.492C660.129 586.986 653.294 590.593 646.46 594.2C630.73 565.246 615.001 536.292 598.863 505.515C597.791 501.786 597.126 499.881 596.462 497.976C596.462 497.976 596.277 497.864 597.103 497.481C598.889 496.251 599.637 495.246 601.297 493.474C612.565 485.84 622.706 478.814 632.847 471.788Z" fill="#718C71"/>
<path d="M746.154 266.2C770.658 239.321 795.163 212.442 821.336 186.582C825.54 192.707 827.868 197.928 830.646 202.898C841.12 221.638 851.74 240.296 862.306 258.984C842.75 236.227 821.91 242.961 800.723 256.242C796.949 258.608 792.953 260.621 786.353 263.356C771.212 265.708 759.539 279.97 746.154 266.2Z" fill="#6D8880"/>
<path d="M540.824 616.67C549.88 614.893 557.811 613.434 566.565 611.511C589.878 643.303 612.541 675.442 634.672 707.942C638.037 712.883 638.94 719.496 639.493 726.788C633.512 728.222 629.019 728.205 624.526 728.188C595.573 692.169 566.621 656.15 537.53 618.751C538.161 617.244 538.93 617.116 540.824 616.67Z" fill="#6C8681"/>
<path d="M789.462 415.723C816.678 413.452 844.068 412.384 871.054 408.507C890.742 405.679 902.572 413.419 909.671 430.719C900.441 433.485 892.769 434.988 883.498 436.381C848.209 441.533 814.519 446.794 781.093 450.565C784.059 437.957 786.761 426.84 789.462 415.723Z" fill="#97BDB4"/>
<path d="M919.587 163.09C930.197 170.763 940.807 178.436 953.338 187.497C933.838 214.098 914.733 240.159 893.408 266.497C890.468 266.953 889.748 267.132 888.021 266.801C887.447 262.902 887.878 259.512 888.896 254.775C897.085 225.609 904.688 197.793 912.874 169.152C915.501 166.582 917.544 164.836 919.587 163.09Z" fill="#A9CDE7"/>
<path d="M789.484 414.26C786.761 426.84 784.059 437.958 781.046 451.065C780.733 453.056 779.752 453.29 779.752 453.29C777.219 449.636 774.686 445.983 771.217 439.793C768.866 433.037 767.452 428.817 766.037 424.596C766.037 424.596 765.825 424.745 766.04 423.065C762.313 404.497 758.372 387.609 754.431 370.721C754.431 370.721 754.275 370.873 754.444 369.438C753.277 363.789 751.94 359.577 750.603 355.364C750.603 355.364 750.402 355.444 750.611 353.91C749.479 346.741 748.138 341.107 746.798 335.473C746.798 335.473 746.893 333.971 746.791 331.724C746.87 325.506 747.051 321.535 748.155 316.982C751.742 315.624 754.405 314.849 757.068 314.074C767.881 346.982 778.694 379.889 789.484 414.26Z" fill="#AFCD8F"/>
<path d="M201.493 655.105C202.994 656.749 203.163 658.838 203.32 662.5C183.037 701.502 162.766 738.931 140.598 777.415C136.513 776.679 134.326 774.888 132.138 773.097C145.493 741.14 157.647 708.593 172.923 677.579C177.604 668.075 190.842 662.775 201.493 655.105Z" fill="#8AB495"/>
<path d="M863.088 259.58C851.74 240.296 841.12 221.638 830.645 202.898C827.868 197.928 825.54 192.707 822.545 186.159C822.086 184.715 822.153 184.531 823.242 184.429C825.132 183.331 825.931 182.334 826.731 181.337C826.731 181.337 827.427 182.102 828.023 181.553C829.565 180.101 830.512 179.197 831.458 178.294C838.202 174.626 844.947 170.959 853.712 167.322C856.733 168.303 857.731 169.253 858.738 171.369C858.813 173.306 858.879 174.077 858.857 176.137C860 181.515 861.231 185.603 862.455 191.122C863.782 198.101 865.116 203.649 866.372 210.773C867.546 219.056 869.519 225.724 869.881 232.479C870.417 242.497 869.812 252.577 868.94 262.592C868.187 262.554 866.715 262.887 866.715 262.887C865.767 261.983 864.818 261.079 863.088 259.58Z" fill="#94BE99"/>
<path d="M318.982 656.994C326.402 654.004 333.506 652.428 341.554 651.807C322.826 692.499 303.154 732.235 283.482 771.971C281.072 770.959 278.662 769.946 276.252 768.934C290.39 732.092 304.528 695.249 318.982 656.994Z" fill="#85AB94"/>
<path d="M633.58 470.562C622.706 478.814 612.565 485.84 600.319 493.446C597.561 494.012 596.909 493.998 596.256 493.983C601.318 470.569 606.379 447.156 611.434 422.18C611.427 420.618 611.606 418.822 611.695 417.923C619.591 421.707 627.45 426.306 635.189 431.098C641.943 435.281 648.562 439.682 656.657 444.051C650.153 452.522 642.233 460.929 633.58 470.562Z" fill="#384D5C"/>
<path d="M647.097 595.299C653.294 590.593 660.128 586.986 668.261 582.985C688.254 602.833 706.948 623.075 726.517 645.488C729.626 649.161 731.862 650.664 734.097 652.166C734.097 652.166 734.821 653.863 733.53 655.291C729.297 657.625 726.355 658.53 723.414 659.435C698.187 638.423 672.961 617.411 647.097 595.299Z" fill="#AFCD8F"/>
<path d="M885.096 436.49C892.768 434.988 900.441 433.485 909.604 431.991C904.801 454.213 898.508 476.427 892.831 500.102C883.69 499.689 873.935 497.815 864.35 494.644C871.379 474.395 878.237 455.443 885.096 436.49Z" fill="#6E877D"/>
<path d="M624.306 729.924C629.019 728.205 633.512 728.222 639.356 728.146C640.706 760.65 640.706 793.247 640.706 825.844C637.592 826.003 634.479 826.161 631.365 826.32C628.939 794.767 626.513 763.213 624.306 729.924Z" fill="#3E5058"/>
<path d="M222.794 618.385C226.239 617.31 230.291 617.297 235.848 617.303C237.974 630.522 244.805 627.077 252.769 623.638C276.172 613.531 299.729 603.767 323.413 594.337C328.558 592.289 334.483 592.193 340.683 592.558C336.286 596.536 331.217 599.081 326.232 601.782C306.968 612.222 287.731 622.711 268.484 633.182C256.669 636.925 244.854 640.667 231.457 644.243C230.103 642.373 230.331 640.671 230.315 637.698C227.847 630.767 225.624 625.106 222.794 618.385Z" fill="#435A61"/>
<path d="M757.032 312.564C754.405 314.849 751.742 315.624 747.055 316.696C744.292 316.823 743.555 316.653 742.818 316.483C738.839 306.506 734.861 296.53 729.484 286.535C733.349 280.119 738.613 273.721 745.015 266.761C759.539 279.97 771.212 265.708 785.176 263.989C776.802 279.726 766.899 295.39 757.032 312.564Z" fill="#4F676F"/>
<path d="M858.73 170.204C857.731 169.253 856.733 168.303 854.872 166.771C853.654 159.733 853.299 153.277 854.628 145.105C858.869 142.419 861.425 141.449 863.982 140.479C863.982 140.479 864.83 141.436 864.224 143.296C866.555 149.967 869.492 154.778 872.429 159.588C874.739 160.608 877.049 161.627 881.545 163.852C889.348 166.558 894.964 168.059 899.695 170.634C895.451 179.014 892.092 186.318 887.91 193.589C887.087 193.556 885.44 193.5 884.793 192.41C875.674 184.281 867.202 177.242 858.73 170.204Z" fill="#628162"/>
<path d="M900.581 169.559C894.964 168.059 889.348 166.558 882.786 164.236C895.119 164.3 905.192 161.704 907.203 145.506C908.078 138.455 912.844 131.885 920.267 125.744C920.267 137.177 920.267 148.611 919.927 161.567C917.544 164.836 915.501 166.582 911.823 169.464C906.986 170.253 903.783 169.906 900.581 169.559Z" fill="#85AB94"/>
<path d="M131.113 773.993C134.326 774.888 136.513 776.679 140.128 778.703C132.996 794.313 124.436 809.69 115.877 825.068C114.876 824.624 113.875 824.18 112.873 823.735C118.612 807.453 124.35 791.17 131.113 773.993Z" fill="#728E83"/>
<path d="M723.276 661.097C726.355 658.53 729.297 657.625 733.289 656.182C734.34 676.221 734.34 696.799 734.34 717.378C735.312 717.364 736.284 717.35 737.255 717.337C737.348 717.899 737.441 718.461 737.534 719.022C737.333 718.54 737.14 718.054 736.931 717.576C733.626 710.018 729.158 702.733 727.3 694.835C724.843 684.394 724.43 673.474 723.276 661.097Z" fill="#85AB94"/>
<path d="M850.994 557.51C855.044 557.217 859.573 558.456 865.466 560.155C858.442 577.076 850.055 593.537 841.668 609.998C840.746 609.499 839.824 609 838.902 608.501C843.092 592.014 847.282 575.528 850.994 557.51Z" fill="#435A61"/>
<path d="M863.759 139.232C861.425 141.449 858.869 142.419 854.256 143.517C849.725 129.583 847.251 115.521 844.776 101.459C846.088 101.048 847.401 100.636 848.714 100.225C853.655 112.812 858.595 125.399 863.759 139.232Z" fill="#384D5C"/>
<path d="M866.89 264.213C866.716 262.887 868.187 262.554 869.547 263.71C876.162 271.482 881.328 278.767 889.028 267.311C889.748 267.132 890.468 266.953 892.253 267.09C889.525 273.494 885.733 279.583 879.741 289.203C874.341 279.122 870.702 272.331 866.89 264.213Z" fill="#6D8880"/>
<path d="M872.551 158.349C869.492 154.778 866.555 149.967 864.26 143.934C867.493 147.511 870.083 152.31 872.551 158.349Z" fill="#384D5C"/>
<path d="M595.415 498.112C597.126 499.881 597.791 501.786 598.203 504.391C596.977 505.218 596.003 505.346 593.554 505.476C592.843 503.069 593.606 500.659 595.415 498.112Z" fill="#3E5058"/>
<path d="M911.237 566.622C912.483 567.026 912.579 568.634 912.551 569.438C908.749 569.287 904.975 568.333 900.547 566.414C903.259 565.705 906.625 565.962 911.237 566.622Z" fill="#435A61"/>
<path d="M734.252 651.073C731.862 650.664 729.626 649.161 727.271 646.596C729.57 647.016 731.989 648.498 734.252 651.073Z" fill="#85AB94"/>
<path d="M873.144 561.618C875.131 561.003 877.398 561.26 880.569 562.296C878.789 562.881 876.106 562.685 873.144 561.618Z" fill="#435A61"/>
<path d="M588.624 523.871C588.111 522.256 588.393 519.891 589.493 517.215C590.014 518.976 589.717 521.048 588.624 523.871Z" fill="#3E5058"/>
<path d="M909.395 502.529C907.862 503.394 905.243 503.457 901.497 502.761C903.016 501.91 905.662 501.818 909.395 502.529Z" fill="#6E877D"/>
<path d="M947.13 510.817C945.498 511.507 943.159 511.101 939.846 509.944C941.388 509.368 943.905 509.544 947.13 510.817Z" fill="#6E877D"/>
<path d="M825.752 181.468C825.931 182.334 825.132 183.331 823.34 184.416C823.156 183.535 823.964 182.566 825.752 181.468Z" fill="#6D8880"/>
<path d="M830.379 178.263C830.512 179.197 829.565 180.1 827.645 181.2C827.547 180.342 828.423 179.287 830.379 178.263Z" fill="#6D8880"/>
<path d="M729.695 520.428C731.091 520.195 732.019 521.13 733.94 523.776C733.032 524.189 731.129 522.893 729.695 520.428Z" fill="#728E83"/>
<path d="M360.615 583.265C357.55 585.995 353.008 588.43 347.133 590.7C350.246 588.013 354.692 585.492 360.615 583.265Z" fill="#435A61"/>
<path d="M375.275 576.698C373.331 579.144 370.462 580.97 366.256 582.673C368.062 580.392 371.206 578.235 375.275 576.698Z" fill="#435A61"/>
<path d="M382.928 574.737C382.944 575.269 382.484 575.732 381.043 576.175C380.619 575.287 381.415 574.791 382.928 574.737Z" fill="#435A61"/>
<path d="M754.367 372.392C758.372 387.609 762.313 404.497 766.163 423.028C762.15 407.802 758.226 390.933 754.367 372.392Z" fill="#759274"/>
<path d="M746.719 337.019C748.138 341.107 749.479 346.741 750.709 353.86C749.28 349.751 747.96 344.158 746.719 337.019Z" fill="#759274"/>
<path d="M750.535 356.761C751.94 359.577 753.277 363.789 754.544 369.39C753.139 366.571 751.803 362.364 750.535 356.761Z" fill="#759274"/>
<path d="M742.768 317.93C743.555 316.653 744.292 316.823 746.13 317.278C747.051 321.535 746.87 325.506 746.673 330.981C745.343 328.115 744.031 323.745 742.768 317.93Z" fill="#759274"/>
<path d="M765.969 426.027C767.452 428.817 768.867 433.037 770.454 438.641C769.051 435.835 767.475 431.646 765.969 426.027Z" fill="#759274"/>
<path d="M218.742 614.238C219.232 614.205 220.245 614.986 221.787 616.574C221.299 616.605 220.282 615.828 218.742 614.238Z" fill="#435A61"/>
<path d="M596.246 495.007C596.908 493.998 597.561 494.013 599.191 494.055C599.637 495.246 598.889 496.251 597.119 497.587C596.286 497.395 596.261 496.713 596.246 495.007Z" fill="#3E5058"/>
<path d="M899.696 170.634C903.783 169.906 906.986 170.253 911.239 170.288C904.688 197.793 897.085 225.609 888 253.449C887.256 233.522 887.995 213.572 888.733 193.622C892.092 186.318 895.451 179.014 899.696 170.634Z" fill="#AFCD8F"/>
<path d="M887.91 193.589C887.995 213.572 887.256 233.522 887.414 254.798C887.878 259.512 887.447 262.902 888.021 266.801C881.328 278.767 876.162 271.482 870.3 263.748C869.812 252.577 870.417 242.497 869.881 232.479C869.519 225.724 867.546 219.056 867.49 211.043C892.415 223.004 879.784 198.839 885.441 193.5C885.441 193.5 887.087 193.556 887.91 193.589Z" fill="#759274"/>
<path d="M884.793 192.41C879.784 198.839 892.415 223.004 867.568 209.468C865.116 203.649 863.782 198.101 863.225 190.289C862.317 183.633 860.631 179.241 858.946 174.848C858.879 174.077 858.813 173.306 858.738 171.369C867.202 177.242 875.674 184.281 884.793 192.41Z" fill="#728E83"/>
<path d="M858.857 176.137C860.631 179.241 862.317 183.633 863.233 188.858C861.231 185.603 860 181.515 858.857 176.137Z" fill="#759274"/>
</g>
<defs>
<filter id="filter0_d_2_191" x="-4" y="0" width="1032" height="1032" filterUnits="userSpaceOnUse" color-interpolation-filters="sRGB">
<feFlood flood-opacity="0" result="BackgroundImageFix"/>
<feColorMatrix in="SourceAlpha" type="matrix" values="0 0 0 0 0 0 0 0 0 0 0 0 0 0 0 0 0 0 127 0" result="hardAlpha"/>
<feOffset dy="4"/>
<feGaussianBlur stdDeviation="2"/>
<feComposite in2="hardAlpha" operator="out"/>
<feColorMatrix type="matrix" values="0 0 0 0 0 0 0 0 0 0 0 0 0 0 0 0 0 0 0.25 0"/>
<feBlend mode="normal" in2="BackgroundImageFix" result="effect1_dropShadow_2_191"/>
<feBlend mode="normal" in="SourceGraphic" in2="effect1_dropShadow_2_191" result="shape"/>
</filter>
<clipPath id="clip0_2_191">
<rect width="1024" height="1024" fill="white"/>
</clipPath>
</defs>
</svg>
